<mxfile host="app.diagrams.net" modified="2024-01-15T06:51:30.469Z" agent="Mozilla/5.0 (Windows NT 10.0; Win64; x64) AppleWebKit/537.36 (KHTML, like Gecko) Chrome/120.0.0.0 Safari/537.36" etag="6yHRHuUk-Q5XUMxDIF7o" version="22.1.18" type="github">
  <diagram name="Page-1" id="52a04d89-c75d-2922-d76d-85b35f80e030">
    <mxGraphModel dx="1195" dy="615" grid="1" gridSize="10" guides="1" tooltips="1" connect="1" arrows="1" fold="1" page="1" pageScale="1" pageWidth="1600" pageHeight="900" background="none" math="0" shadow="0">
      <root>
        <mxCell id="0" />
        <mxCell id="1" parent="0" />
        <mxCell id="17472293e6e8944d-4" value="&lt;font style=&quot;font-size: 9px;&quot;&gt;고객결제내역&lt;/font&gt;" style="html=1;rounded=0;shadow=0;comic=0;labelBackgroundColor=none;strokeWidth=2;fontFamily=Verdana;fontSize=12;align=center;shape=mxgraph.ios7ui.horLines;" parent="1" vertex="1">
          <mxGeometry x="560" y="80" width="70" height="20.04" as="geometry" />
        </mxCell>
        <mxCell id="e2xfSPb0T8YYYIXP3AMZ-17" style="edgeStyle=orthogonalEdgeStyle;rounded=0;orthogonalLoop=1;jettySize=auto;html=1;entryX=0;entryY=0.5;entryDx=0;entryDy=0;curved=1;" edge="1" parent="1" source="e2xfSPb0T8YYYIXP3AMZ-8" target="e2xfSPb0T8YYYIXP3AMZ-13">
          <mxGeometry relative="1" as="geometry" />
        </mxCell>
        <mxCell id="e2xfSPb0T8YYYIXP3AMZ-8" value="&lt;font style=&quot;font-size: 10px;&quot;&gt;고객&lt;/font&gt;" style="rounded=0;whiteSpace=wrap;html=1;fillColor=#dae8fc;strokeColor=#6c8ebf;" vertex="1" parent="1">
          <mxGeometry x="220" y="280.03999999999996" width="60" height="40" as="geometry" />
        </mxCell>
        <mxCell id="e2xfSPb0T8YYYIXP3AMZ-35" style="edgeStyle=orthogonalEdgeStyle;rounded=0;orthogonalLoop=1;jettySize=auto;html=1;curved=1;entryX=1;entryY=0.5;entryDx=0;entryDy=0;" edge="1" parent="1" source="e2xfSPb0T8YYYIXP3AMZ-11" target="e2xfSPb0T8YYYIXP3AMZ-34">
          <mxGeometry relative="1" as="geometry">
            <mxPoint x="510" y="532" as="targetPoint" />
          </mxGeometry>
        </mxCell>
        <mxCell id="e2xfSPb0T8YYYIXP3AMZ-36" value="&lt;font style=&quot;font-size: 9px;&quot;&gt;검사신청정보&lt;/font&gt;" style="edgeLabel;html=1;align=center;verticalAlign=middle;resizable=0;points=[];" vertex="1" connectable="0" parent="e2xfSPb0T8YYYIXP3AMZ-35">
          <mxGeometry x="0.1828" relative="1" as="geometry">
            <mxPoint as="offset" />
          </mxGeometry>
        </mxCell>
        <mxCell id="e2xfSPb0T8YYYIXP3AMZ-11" value="&lt;font style=&quot;font-size: 10px;&quot;&gt;검사신청&lt;/font&gt;" style="ellipse;whiteSpace=wrap;html=1;rounded=1;shadow=0;comic=0;labelBackgroundColor=none;strokeWidth=1;fontFamily=Verdana;fontSize=12;align=center;fillColor=#fff2cc;strokeColor=#d6b656;" vertex="1" parent="1">
          <mxGeometry x="630" y="430" width="70" height="52.03" as="geometry" />
        </mxCell>
        <mxCell id="e2xfSPb0T8YYYIXP3AMZ-44" style="edgeStyle=orthogonalEdgeStyle;rounded=0;orthogonalLoop=1;jettySize=auto;html=1;curved=1;entryX=0.5;entryY=0;entryDx=0;entryDy=0;" edge="1" parent="1" source="e2xfSPb0T8YYYIXP3AMZ-12" target="e2xfSPb0T8YYYIXP3AMZ-46">
          <mxGeometry relative="1" as="geometry">
            <mxPoint x="580" y="250" as="targetPoint" />
          </mxGeometry>
        </mxCell>
        <mxCell id="e2xfSPb0T8YYYIXP3AMZ-47" value="주문된검사목록" style="edgeLabel;html=1;align=center;verticalAlign=middle;resizable=0;points=[];fontSize=9;" vertex="1" connectable="0" parent="e2xfSPb0T8YYYIXP3AMZ-44">
          <mxGeometry x="0.0444" y="-1" relative="1" as="geometry">
            <mxPoint as="offset" />
          </mxGeometry>
        </mxCell>
        <mxCell id="e2xfSPb0T8YYYIXP3AMZ-12" value="&lt;font style=&quot;font-size: 10px;&quot;&gt;결제&lt;/font&gt;" style="ellipse;whiteSpace=wrap;html=1;rounded=1;shadow=0;comic=0;labelBackgroundColor=none;strokeWidth=1;fontFamily=Verdana;fontSize=12;align=center;fillColor=#fff2cc;strokeColor=#d6b656;" vertex="1" parent="1">
          <mxGeometry x="510" y="143.94" width="70" height="52.03" as="geometry" />
        </mxCell>
        <mxCell id="e2xfSPb0T8YYYIXP3AMZ-39" style="edgeStyle=orthogonalEdgeStyle;rounded=0;orthogonalLoop=1;jettySize=auto;html=1;entryX=0;entryY=0.5;entryDx=0;entryDy=0;curved=1;" edge="1" parent="1" source="e2xfSPb0T8YYYIXP3AMZ-13" target="e2xfSPb0T8YYYIXP3AMZ-12">
          <mxGeometry relative="1" as="geometry" />
        </mxCell>
        <mxCell id="e2xfSPb0T8YYYIXP3AMZ-40" value="결제정보" style="edgeLabel;html=1;align=center;verticalAlign=middle;resizable=0;points=[];fontSize=9;" vertex="1" connectable="0" parent="e2xfSPb0T8YYYIXP3AMZ-39">
          <mxGeometry x="0.0577" y="2" relative="1" as="geometry">
            <mxPoint as="offset" />
          </mxGeometry>
        </mxCell>
        <mxCell id="e2xfSPb0T8YYYIXP3AMZ-13" value="&lt;font style=&quot;font-size: 10px;&quot;&gt;상품주문&lt;/font&gt;" style="ellipse;whiteSpace=wrap;html=1;rounded=1;shadow=0;comic=0;labelBackgroundColor=none;strokeWidth=1;fontFamily=Verdana;fontSize=12;align=center;fillColor=#fff2cc;strokeColor=#d6b656;" vertex="1" parent="1">
          <mxGeometry x="360" y="163.98" width="70" height="52.03" as="geometry" />
        </mxCell>
        <mxCell id="e2xfSPb0T8YYYIXP3AMZ-18" style="edgeStyle=orthogonalEdgeStyle;rounded=0;orthogonalLoop=1;jettySize=auto;html=1;entryX=0.494;entryY=-0.105;entryDx=0;entryDy=0;entryPerimeter=0;curved=1;" edge="1" parent="1" source="e2xfSPb0T8YYYIXP3AMZ-13">
          <mxGeometry relative="1" as="geometry">
            <mxPoint x="474.58000000000015" y="257.9" as="targetPoint" />
          </mxGeometry>
        </mxCell>
        <mxCell id="e2xfSPb0T8YYYIXP3AMZ-33" value="주문정보" style="edgeLabel;html=1;align=center;verticalAlign=middle;resizable=0;points=[];fontSize=9;" vertex="1" connectable="0" parent="e2xfSPb0T8YYYIXP3AMZ-18">
          <mxGeometry x="0.1483" y="-7" relative="1" as="geometry">
            <mxPoint as="offset" />
          </mxGeometry>
        </mxCell>
        <mxCell id="e2xfSPb0T8YYYIXP3AMZ-21" value="&lt;font style=&quot;font-size: 9px;&quot;&gt;고객주문내역&lt;/font&gt;" style="html=1;rounded=0;shadow=0;comic=0;labelBackgroundColor=none;strokeWidth=2;fontFamily=Verdana;fontSize=12;align=center;shape=mxgraph.ios7ui.horLines;" vertex="1" parent="1">
          <mxGeometry x="440" y="260" width="70" height="20.04" as="geometry" />
        </mxCell>
        <mxCell id="e2xfSPb0T8YYYIXP3AMZ-56" style="edgeStyle=orthogonalEdgeStyle;rounded=0;orthogonalLoop=1;jettySize=auto;html=1;entryX=0.5;entryY=1;entryDx=0;entryDy=0;curved=1;" edge="1" parent="1" source="e2xfSPb0T8YYYIXP3AMZ-34" target="e2xfSPb0T8YYYIXP3AMZ-55">
          <mxGeometry relative="1" as="geometry" />
        </mxCell>
        <mxCell id="e2xfSPb0T8YYYIXP3AMZ-59" value="검사결과" style="edgeLabel;html=1;align=center;verticalAlign=middle;resizable=0;points=[];" vertex="1" connectable="0" parent="e2xfSPb0T8YYYIXP3AMZ-56">
          <mxGeometry x="-0.4332" y="-1" relative="1" as="geometry">
            <mxPoint as="offset" />
          </mxGeometry>
        </mxCell>
        <mxCell id="e2xfSPb0T8YYYIXP3AMZ-34" value="&lt;span style=&quot;font-size: 10px;&quot;&gt;제노플랜&lt;/span&gt;" style="rounded=0;whiteSpace=wrap;html=1;fillColor=#dae8fc;strokeColor=#6c8ebf;" vertex="1" parent="1">
          <mxGeometry x="445" y="524.03" width="60" height="40" as="geometry" />
        </mxCell>
        <mxCell id="e2xfSPb0T8YYYIXP3AMZ-42" style="edgeStyle=orthogonalEdgeStyle;rounded=0;orthogonalLoop=1;jettySize=auto;html=1;entryX=0.492;entryY=1.112;entryDx=0;entryDy=0;entryPerimeter=0;curved=1;" edge="1" parent="1" source="e2xfSPb0T8YYYIXP3AMZ-12" target="17472293e6e8944d-4">
          <mxGeometry relative="1" as="geometry" />
        </mxCell>
        <mxCell id="e2xfSPb0T8YYYIXP3AMZ-43" value="결제정보" style="edgeLabel;html=1;align=center;verticalAlign=middle;resizable=0;points=[];fontSize=9;" vertex="1" connectable="0" parent="e2xfSPb0T8YYYIXP3AMZ-42">
          <mxGeometry x="0.0916" y="1" relative="1" as="geometry">
            <mxPoint as="offset" />
          </mxGeometry>
        </mxCell>
        <mxCell id="e2xfSPb0T8YYYIXP3AMZ-48" style="edgeStyle=orthogonalEdgeStyle;rounded=0;orthogonalLoop=1;jettySize=auto;html=1;curved=1;entryX=0.524;entryY=0;entryDx=0;entryDy=0;entryPerimeter=0;" edge="1" parent="1" source="e2xfSPb0T8YYYIXP3AMZ-46" target="e2xfSPb0T8YYYIXP3AMZ-51">
          <mxGeometry relative="1" as="geometry">
            <mxPoint x="600" y="370" as="targetPoint" />
          </mxGeometry>
        </mxCell>
        <mxCell id="e2xfSPb0T8YYYIXP3AMZ-50" value="신규 검사권&amp;nbsp;" style="edgeLabel;html=1;align=center;verticalAlign=middle;resizable=0;points=[];fontSize=9;" vertex="1" connectable="0" parent="e2xfSPb0T8YYYIXP3AMZ-48">
          <mxGeometry x="-0.4719" y="4" relative="1" as="geometry">
            <mxPoint as="offset" />
          </mxGeometry>
        </mxCell>
        <mxCell id="e2xfSPb0T8YYYIXP3AMZ-46" value="&lt;font style=&quot;font-size: 10px;&quot;&gt;검사권생성&lt;/font&gt;" style="ellipse;whiteSpace=wrap;html=1;rounded=1;shadow=0;comic=0;labelBackgroundColor=none;strokeWidth=1;fontFamily=Verdana;fontSize=12;align=center;fillColor=#fff2cc;strokeColor=#d6b656;" vertex="1" parent="1">
          <mxGeometry x="550" y="260" width="70" height="52.03" as="geometry" />
        </mxCell>
        <mxCell id="e2xfSPb0T8YYYIXP3AMZ-53" style="edgeStyle=orthogonalEdgeStyle;rounded=0;orthogonalLoop=1;jettySize=auto;html=1;entryX=0;entryY=0.5;entryDx=0;entryDy=0;curved=1;" edge="1" parent="1" source="e2xfSPb0T8YYYIXP3AMZ-51" target="e2xfSPb0T8YYYIXP3AMZ-11">
          <mxGeometry relative="1" as="geometry" />
        </mxCell>
        <mxCell id="e2xfSPb0T8YYYIXP3AMZ-54" value="검사권고유번호" style="edgeLabel;html=1;align=center;verticalAlign=middle;resizable=0;points=[];fontSize=9;" vertex="1" connectable="0" parent="e2xfSPb0T8YYYIXP3AMZ-53">
          <mxGeometry x="-0.2453" relative="1" as="geometry">
            <mxPoint as="offset" />
          </mxGeometry>
        </mxCell>
        <mxCell id="e2xfSPb0T8YYYIXP3AMZ-51" value="&lt;font style=&quot;font-size: 9px;&quot;&gt;검사권&lt;/font&gt;" style="html=1;rounded=0;shadow=0;comic=0;labelBackgroundColor=none;strokeWidth=2;fontFamily=Verdana;fontSize=12;align=center;shape=mxgraph.ios7ui.horLines;" vertex="1" parent="1">
          <mxGeometry x="560" y="360" width="70" height="20.04" as="geometry" />
        </mxCell>
        <mxCell id="e2xfSPb0T8YYYIXP3AMZ-60" style="edgeStyle=orthogonalEdgeStyle;rounded=0;orthogonalLoop=1;jettySize=auto;html=1;entryX=0.5;entryY=1;entryDx=0;entryDy=0;curved=1;" edge="1" parent="1" source="e2xfSPb0T8YYYIXP3AMZ-55" target="e2xfSPb0T8YYYIXP3AMZ-8">
          <mxGeometry relative="1" as="geometry" />
        </mxCell>
        <mxCell id="e2xfSPb0T8YYYIXP3AMZ-61" value="검사결과URL" style="edgeLabel;html=1;align=center;verticalAlign=middle;resizable=0;points=[];fontSize=9;" vertex="1" connectable="0" parent="e2xfSPb0T8YYYIXP3AMZ-60">
          <mxGeometry x="-0.0783" y="1" relative="1" as="geometry">
            <mxPoint as="offset" />
          </mxGeometry>
        </mxCell>
        <mxCell id="e2xfSPb0T8YYYIXP3AMZ-55" value="&lt;span style=&quot;font-size: 10px;&quot;&gt;검사결과조회&lt;/span&gt;" style="ellipse;whiteSpace=wrap;html=1;rounded=1;shadow=0;comic=0;labelBackgroundColor=none;strokeWidth=1;fontFamily=Verdana;fontSize=12;align=center;fillColor=#fff2cc;strokeColor=#d6b656;" vertex="1" parent="1">
          <mxGeometry x="280" y="472" width="70" height="52.03" as="geometry" />
        </mxCell>
        <mxCell id="e2xfSPb0T8YYYIXP3AMZ-64" style="edgeStyle=orthogonalEdgeStyle;rounded=0;orthogonalLoop=1;jettySize=auto;html=1;entryX=0;entryY=0.5;entryDx=0;entryDy=0;curved=1;" edge="1" parent="1" source="e2xfSPb0T8YYYIXP3AMZ-62" target="e2xfSPb0T8YYYIXP3AMZ-63">
          <mxGeometry relative="1" as="geometry" />
        </mxCell>
        <mxCell id="e2xfSPb0T8YYYIXP3AMZ-62" value="관리자" style="rounded=0;whiteSpace=wrap;html=1;fillColor=#dae8fc;strokeColor=#6c8ebf;" vertex="1" parent="1">
          <mxGeometry x="60" y="9.999999999999964" width="60" height="40" as="geometry" />
        </mxCell>
        <mxCell id="e2xfSPb0T8YYYIXP3AMZ-63" value="&lt;span style=&quot;font-size: 10px;&quot;&gt;신규상품등록&lt;/span&gt;" style="ellipse;whiteSpace=wrap;html=1;rounded=1;shadow=0;comic=0;labelBackgroundColor=none;strokeWidth=1;fontFamily=Verdana;fontSize=12;align=center;fillColor=#fff2cc;strokeColor=#d6b656;" vertex="1" parent="1">
          <mxGeometry x="190" y="27.969999999999985" width="70" height="52.03" as="geometry" />
        </mxCell>
        <mxCell id="e2xfSPb0T8YYYIXP3AMZ-67" style="edgeStyle=orthogonalEdgeStyle;rounded=0;orthogonalLoop=1;jettySize=auto;html=1;entryX=0.5;entryY=1;entryDx=0;entryDy=0;curved=1;" edge="1" parent="1" source="e2xfSPb0T8YYYIXP3AMZ-66" target="e2xfSPb0T8YYYIXP3AMZ-63">
          <mxGeometry relative="1" as="geometry" />
        </mxCell>
        <mxCell id="e2xfSPb0T8YYYIXP3AMZ-66" value="&lt;font size=&quot;1&quot;&gt;유전자검사목록&lt;/font&gt;" style="html=1;rounded=0;shadow=0;comic=0;labelBackgroundColor=none;strokeWidth=2;fontFamily=Verdana;fontSize=12;align=center;shape=mxgraph.ios7ui.horLines;" vertex="1" parent="1">
          <mxGeometry x="30" y="123.89999999999999" width="70" height="20.04" as="geometry" />
        </mxCell>
        <mxCell id="e2xfSPb0T8YYYIXP3AMZ-72" style="edgeStyle=orthogonalEdgeStyle;rounded=0;orthogonalLoop=1;jettySize=auto;html=1;entryX=0.5;entryY=0;entryDx=0;entryDy=0;curved=1;" edge="1" parent="1" source="e2xfSPb0T8YYYIXP3AMZ-69" target="e2xfSPb0T8YYYIXP3AMZ-13">
          <mxGeometry relative="1" as="geometry" />
        </mxCell>
        <mxCell id="e2xfSPb0T8YYYIXP3AMZ-73" value="상품정보" style="edgeLabel;html=1;align=center;verticalAlign=middle;resizable=0;points=[];" vertex="1" connectable="0" parent="e2xfSPb0T8YYYIXP3AMZ-72">
          <mxGeometry x="-0.2478" relative="1" as="geometry">
            <mxPoint as="offset" />
          </mxGeometry>
        </mxCell>
        <mxCell id="e2xfSPb0T8YYYIXP3AMZ-69" value="&lt;font size=&quot;1&quot;&gt;상품&lt;/font&gt;" style="html=1;rounded=0;shadow=0;comic=0;labelBackgroundColor=none;strokeWidth=2;fontFamily=Verdana;fontSize=12;align=center;shape=mxgraph.ios7ui.horLines;" vertex="1" parent="1">
          <mxGeometry x="300" y="80.00000000000001" width="70" height="20.04" as="geometry" />
        </mxCell>
        <mxCell id="e2xfSPb0T8YYYIXP3AMZ-70" style="edgeStyle=orthogonalEdgeStyle;rounded=0;orthogonalLoop=1;jettySize=auto;html=1;entryX=0.527;entryY=0.025;entryDx=0;entryDy=0;entryPerimeter=0;curved=1;" edge="1" parent="1" source="e2xfSPb0T8YYYIXP3AMZ-63" target="e2xfSPb0T8YYYIXP3AMZ-69">
          <mxGeometry relative="1" as="geometry" />
        </mxCell>
        <mxCell id="e2xfSPb0T8YYYIXP3AMZ-71" value="신규상품정보" style="edgeLabel;html=1;align=center;verticalAlign=middle;resizable=0;points=[];fontSize=9;" vertex="1" connectable="0" parent="e2xfSPb0T8YYYIXP3AMZ-70">
          <mxGeometry x="-0.172" y="-2" relative="1" as="geometry">
            <mxPoint as="offset" />
          </mxGeometry>
        </mxCell>
      </root>
    </mxGraphModel>
  </diagram>
</mxfile>
